<svg width="395" height="398" viewBox="0 0 395 398" fill="none" xmlns="http://www.w3.org/2000/svg">
<path d="M0 7.99999C0 3.58171 3.58172 0 8 0H387C391.418 0 395 3.58172 395 8V390C395 394.418 391.418 398 387 398H8.00001C3.58173 398 0 394.418 0 390V7.99999Z" fill="#FCB934" fill-opacity="0.05"/>
<mask id="mask0_1008_42" style="mask-type:alpha" maskUnits="userSpaceOnUse" x="0" y="0" width="395" height="250">
<path d="M1.29935 1.25H393.701V248.75H1.29935V1.25Z" fill="#F8F7F9" stroke="#B1A6F1" stroke-width="2"/>
</mask>
<g mask="url(#mask0_1008_42)">
<path d="M31.3054 740.033L227.387 642.819C233.607 639.588 283.225 615.205 431.938 543.526C580.65 471.848 573.408 368.658 551.197 326.021C538.703 300.781 512.107 247.423 505.674 235.905C499.241 224.389 510.647 213.201 517.154 209.046C584.188 169.581 651.651 113.642 632.264 70.3138C555.188 -101.939 509.764 -205.021 471.999 -259.697C434.235 -314.375 391.171 -296.649 378.969 -292.631C369.208 -289.419 294.709 -248.087 258.68 -227.824L244.608 -253.017C238.173 -264.535 225.37 -261.597 219.771 -258.69C5.74677 -149.06 -429.766 74.0785 -459.623 89.5882C-489.48 105.098 -487.659 122.725 -483.015 129.6C-425.336 234.296 -288.696 480.926 -203.571 629.873C-118.446 778.819 -11.5179 765.374 31.3054 740.033Z" fill="#FDDC9A"/>
<path d="M260.456 -365.911C391.572 -426.117 478.463 -339.924 503.238 -294.312C519.754 -340.454 620.5 -399.985 708.034 -373.866C894.661 -318.179 853.773 -144.581 836.856 -108.157C788.821 -4.73672 561.043 306.054 524.708 329.389C488.375 352.725 273.67 87.5461 224.124 -4.73669C174.576 -97.0196 83.7392 -284.766 260.456 -365.911Z" fill="#FCB935"/>
<path d="M-175.941 362.818C-149.15 431.22 -54.656 448.321 -10.7577 448.321L-10.8259 502.731C-10.8616 531.232 59.0463 507.914 81.9498 461.276C158.526 478.117 502.58 450.911 528.302 300.634C539.838 233.234 513.694 162.016 417.006 107.605C320.319 53.1941 115.185 64.2156 -10.3487 121.855C-182.458 200.881 -209.429 277.315 -175.941 362.818Z" fill="#100A30"/>
</g>
<path d="M32.1136 208H34.2273V201.625H38.0455C42.1108 201.625 43.9432 199.153 43.9432 196.068C43.9432 192.983 42.1108 190.545 38.0114 190.545H32.1136V208ZM34.2273 199.75V192.42H37.9432C40.7812 192.42 41.8636 193.972 41.8636 196.068C41.8636 198.165 40.7812 199.75 37.9773 199.75H34.2273ZM47.0753 208H49.0866V199.716C49.0866 197.943 50.4844 196.648 52.3935 196.648C52.9304 196.648 53.4844 196.75 53.6207 196.784V194.739C53.3906 194.722 52.8622 194.705 52.5639 194.705C50.9957 194.705 49.6321 195.591 49.1548 196.886H49.0185V194.909H47.0753V208ZM60.9247 208.273C64.4702 208.273 66.8565 205.58 66.8565 201.523C66.8565 197.432 64.4702 194.739 60.9247 194.739C57.3793 194.739 54.9929 197.432 54.9929 201.523C54.9929 205.58 57.3793 208.273 60.9247 208.273ZM60.9247 206.466C58.2315 206.466 57.0043 204.148 57.0043 201.523C57.0043 198.898 58.2315 196.545 60.9247 196.545C63.6179 196.545 64.8452 198.898 64.8452 201.523C64.8452 204.148 63.6179 206.466 60.9247 206.466Z" fill="#FF9F1C"/>
<g clip-path="url(#clip0_1008_42)">
<path d="M30 173.827H37.5377V173.007L35.6694 172.445V167.76L36.3137 167.933C37.1297 168.17 37.9243 168.278 38.6759 168.278C41.5536 168.278 43.7011 166.572 43.7011 163.614C43.7011 160.634 41.3174 158.972 37.3445 158.972H30V159.792L31.761 160.354V172.445L30 173.007V173.827ZM35.6694 160.332H37.0224C39.1484 160.332 39.7068 160.893 39.7068 163.614C39.7068 166.054 39.3632 166.831 37.5163 166.831C37.3015 166.831 37.0438 166.831 36.7861 166.81L35.6694 166.723V160.332Z" fill="white"/>
<path d="M46.5095 174C47.9913 174 49.2368 172.899 49.8596 171.819C49.8596 173.179 50.7401 173.957 52.1575 173.957C53.2097 173.957 53.8969 173.568 54.4553 173.244V172.381C53.2742 172.273 53.0809 172.186 53.0809 171.538V167.911C53.0809 164.132 51.5132 163.009 48.6355 163.009C46.7242 163.009 44.1258 163.808 44.1258 165.773C44.1258 166.745 44.7486 167.436 45.672 167.436C46.5095 167.436 47.1323 166.853 47.1323 166.097C47.1323 165.428 46.7887 164.802 45.9511 164.629V164.586C46.2518 164.499 46.7672 164.413 47.4759 164.413C49.065 164.413 49.8596 164.78 49.8596 166.313V167.911L48.0342 168.235C45.1136 168.731 43.8036 169.638 43.8036 171.517C43.8036 173.028 44.9633 174 46.5095 174ZM48.0557 172.1C47.4115 172.1 47.0249 171.798 47.0249 170.955C47.0249 170.027 47.3685 169.573 48.4852 169.163L49.8596 168.667V171.085C49.3657 171.733 48.7644 172.1 48.0557 172.1Z" fill="white"/>
<path d="M61.5392 173.827H67.1013V172.64H66.1778L62.57 167.047L65.1685 164.543H66.5429V163.355H61.5177V164.543H62.8921L59.3273 168.947V158H58.5757L54.4525 159.619V160.094L56.106 161.023V172.64H54.7101V173.827H60.2722V172.64H59.3273V170.178L60.444 169.099L62.5485 172.64H61.5392V173.827Z" fill="white"/>
<path d="M74.3362 173.827H79.8982V172.64H78.9748L75.367 167.047L77.9654 164.543H79.3399V163.355H74.3147V164.543H75.6891L72.1242 168.947V158H71.3726L67.2494 159.619V160.094L68.903 161.023V172.64H67.5071V173.827H73.0691V172.64H72.1242V170.178L73.2409 169.099L75.3455 172.64H74.3362V173.827Z" fill="white"/>
<path d="M85.2804 174C88.5876 174 90.9284 171.279 90.9284 168.494C90.9284 165.708 88.5876 163.009 85.2804 163.009C81.9733 163.009 79.6324 165.708 79.6324 168.494C79.6324 171.279 81.9733 174 85.2804 174ZM85.2804 172.791C83.9919 172.791 83.2188 172.078 83.2188 168.494C83.2188 164.888 84.0134 164.219 85.2804 164.219C86.5475 164.219 87.342 164.866 87.342 168.494C87.342 172.078 86.5689 172.791 85.2804 172.791Z" fill="white"/>
</g>
<path d="M325.277 203.58H324.126L320.61 216.641H321.761L325.277 203.58ZM326.767 215H328.024V209.886C328.024 208.688 328.897 207.841 329.878 207.841C330.831 207.841 331.497 208.464 331.497 209.396V215H332.775V209.673C332.775 208.619 333.436 207.841 334.586 207.841C335.481 207.841 336.248 208.315 336.248 209.524V215H337.505V209.524C337.505 207.601 336.472 206.712 335.013 206.712C333.841 206.712 332.983 207.25 332.562 208.097H332.477C332.072 207.223 331.358 206.712 330.282 206.712C329.217 206.712 328.429 207.223 328.088 208.097H327.981V206.818H326.767V215ZM343.128 215.17C345.344 215.17 346.835 213.487 346.835 210.952C346.835 208.395 345.344 206.712 343.128 206.712C340.912 206.712 339.42 208.395 339.42 210.952C339.42 213.487 340.912 215.17 343.128 215.17ZM343.128 214.041C341.445 214.041 340.677 212.592 340.677 210.952C340.677 209.311 341.445 207.841 343.128 207.841C344.811 207.841 345.578 209.311 345.578 210.952C345.578 212.592 344.811 214.041 343.128 214.041ZM348.754 215H350.011V206.818H348.754V215ZM349.393 205.455C349.883 205.455 350.288 205.071 350.288 204.602C350.288 204.134 349.883 203.75 349.393 203.75C348.903 203.75 348.498 204.134 348.498 204.602C348.498 205.071 348.903 205.455 349.393 205.455ZM358.109 208.651C357.715 207.489 356.831 206.712 355.211 206.712C353.486 206.712 352.207 207.692 352.207 209.077C352.207 210.206 352.878 210.962 354.38 211.314L355.744 211.634C356.57 211.825 356.959 212.219 356.959 212.784C356.959 213.487 356.213 214.062 355.041 214.062C354.013 214.062 353.368 213.62 353.145 212.741L351.951 213.04C352.244 214.43 353.39 215.17 355.062 215.17C356.964 215.17 358.258 214.132 358.258 212.72C358.258 211.58 357.544 210.861 356.085 210.504L354.87 210.206C353.901 209.966 353.464 209.641 353.464 209.013C353.464 208.31 354.21 207.798 355.211 207.798C356.309 207.798 356.761 208.406 356.98 208.97L358.109 208.651Z" fill="white"/>
<path d="M244.886 178.091H240.659L231.932 183.886V188.182L240.455 182.523H240.659V213H244.886V178.091ZM254.926 213H276.949V209.25H260.722V208.977L268.562 200.591C274.562 194.165 276.335 191.165 276.335 187.295C276.335 181.909 271.972 177.614 265.835 177.614C259.716 177.614 255.062 181.773 255.062 187.909H259.085C259.085 183.938 261.659 181.295 265.699 181.295C269.483 181.295 272.381 183.614 272.381 187.295C272.381 190.517 270.489 192.903 266.449 197.318L254.926 209.932V213ZM305.398 190.432H290.466C291.83 184.653 295.562 181.568 300.148 181.568C303.08 181.568 305.602 182.795 307.784 184.773L309.42 181.227C306.966 178.909 303.761 177.614 300.148 177.614C293.142 177.614 287.858 182.42 286.29 190.432H282.83L281.602 193.841H285.881C285.847 194.403 285.83 194.966 285.83 195.545C285.83 196.125 285.847 196.688 285.881 197.25H282.83L281.602 200.659H286.29C287.858 208.67 293.142 213.477 300.148 213.477C303.625 213.477 306.966 212.318 309.352 210.068L307.648 206.523C305.67 208.227 303.148 209.523 300.148 209.523C295.562 209.523 291.83 206.438 290.466 200.659H300.898L302.466 197.25H289.972C289.938 196.705 289.92 196.125 289.92 195.545C289.92 194.966 289.938 194.386 289.972 193.841H303.83L305.398 190.432Z" fill="white"/>
<path fill-rule="evenodd" clip-rule="evenodd" d="M36 294.333C40.6024 294.333 44.3333 290.602 44.3333 286C44.3333 281.398 40.6024 277.667 36 277.667C31.3976 277.667 27.6667 281.398 27.6667 286C27.6667 290.602 31.3976 294.333 36 294.333ZM36 296C30.4771 296 26 291.523 26 286C26 280.477 30.4771 276 36 276C41.5228 276 46 280.477 46 286C46 291.523 41.5228 296 36 296ZM34.8058 288.201L31.5891 284.986L30.4109 286.165L34.8075 290.559L41.8733 283.477L40.6935 282.3L34.8058 288.201Z" fill="#FCB935"/>
<path d="M60.5888 290.139C62.8757 290.139 64.5114 288.881 64.5064 287.141C64.5114 285.874 63.706 284.969 62.2095 284.78V284.7C63.348 284.496 64.1335 283.691 64.1286 282.548C64.1335 280.942 62.7266 279.679 60.6186 279.679C58.5305 279.679 56.9595 280.902 56.9297 282.662H58.9929C59.0178 281.886 59.7287 281.384 60.6087 281.384C61.4787 281.384 62.0604 281.911 62.0554 282.677C62.0604 283.477 61.3793 284.019 60.3999 284.019H59.4503V285.6H60.3999C61.5533 285.6 62.2741 286.177 62.2692 286.997C62.2741 287.808 61.5781 288.364 60.5938 288.364C59.6442 288.364 58.9332 287.867 58.8935 287.121H56.7259C56.7607 288.901 58.3516 290.139 60.5888 290.139ZM70.046 290.224C72.6064 290.224 74.1525 288.275 74.1575 284.919C74.1625 281.588 72.5964 279.679 70.046 279.679C67.4906 279.679 65.9395 281.583 65.9345 284.919C65.9245 288.265 67.4806 290.219 70.046 290.224ZM70.046 288.439C68.8777 288.439 68.122 287.266 68.127 284.919C68.1319 282.607 68.8826 281.444 70.046 281.444C71.2044 281.444 71.96 282.607 71.96 284.919C71.965 287.266 71.2093 288.439 70.046 288.439ZM78.9526 282.364V290.343C78.9526 290.92 78.709 291.208 78.0279 291.208C77.9384 291.208 77.8588 291.208 77.7495 291.198V292.854C77.9036 292.859 78.0279 292.864 78.177 292.864C79.9767 292.864 81.0705 292.148 81.0705 290.378V282.364H78.9526ZM80.0066 281.379C80.638 281.379 81.155 280.897 81.155 280.305C81.155 279.719 80.638 279.237 80.0066 279.237C79.3801 279.237 78.8631 279.719 78.8631 280.305C78.8631 280.897 79.3801 281.379 80.0066 281.379ZM86.2173 290.149C88.5341 290.149 89.9759 288.563 89.9759 286.212C89.9759 283.845 88.5341 282.264 86.2173 282.264C83.9006 282.264 82.4588 283.845 82.4588 286.212C82.4588 288.563 83.9006 290.149 86.2173 290.149ZM86.2273 288.509C85.1584 288.509 84.6115 287.529 84.6115 286.197C84.6115 284.864 85.1584 283.88 86.2273 283.88C87.2763 283.88 87.8232 284.864 87.8232 286.197C87.8232 287.529 87.2763 288.509 86.2273 288.509ZM96.25 286.749C96.255 287.773 95.554 288.31 94.7933 288.31C93.9929 288.31 93.4759 287.748 93.4709 286.848V282.364H91.353V287.226C91.358 289.011 92.402 290.099 93.9382 290.099C95.0866 290.099 95.9119 289.508 96.255 288.613H96.3345V290H98.3679V282.364H96.25V286.749ZM100.062 290H102.18V285.68C102.18 284.74 102.866 284.094 103.801 284.094C104.094 284.094 104.497 284.143 104.695 284.208V282.329C104.507 282.284 104.243 282.254 104.029 282.254C103.174 282.254 102.473 282.751 102.195 283.696H102.115V282.364H100.062V290ZM112.144 284.541C111.955 283.134 110.822 282.264 108.893 282.264C106.939 282.264 105.651 283.169 105.656 284.641C105.651 285.784 106.372 286.525 107.864 286.823L109.186 287.087C109.852 287.221 110.156 287.464 110.165 287.847C110.156 288.3 109.663 288.623 108.923 288.623C108.167 288.623 107.665 288.3 107.536 287.678L105.452 287.788C105.651 289.249 106.894 290.149 108.918 290.149C110.896 290.149 112.313 289.14 112.318 287.634C112.313 286.53 111.592 285.869 110.111 285.565L108.729 285.287C108.018 285.133 107.754 284.889 107.759 284.521C107.754 284.064 108.271 283.766 108.928 283.766C109.663 283.766 110.101 284.168 110.205 284.661L112.144 284.541ZM119.706 290.124C120.939 290.124 121.58 289.413 121.874 288.777H121.963V290H124.051V279.818H121.938V283.646H121.874C121.59 283.025 120.979 282.264 119.701 282.264C118.026 282.264 116.609 283.567 116.609 286.192C116.609 288.747 117.966 290.124 119.706 290.124ZM120.377 288.439C119.338 288.439 118.771 287.514 118.771 286.182C118.771 284.859 119.328 283.95 120.377 283.95C121.406 283.95 121.983 284.82 121.983 286.182C121.983 287.544 121.396 288.439 120.377 288.439ZM127.155 279.818H125.643V283.686H127.155V279.818ZM132.198 290.149C134.088 290.149 135.36 289.229 135.659 287.812L133.7 287.683C133.486 288.265 132.939 288.568 132.233 288.568C131.174 288.568 130.503 287.867 130.503 286.729V286.724H135.703V286.142C135.703 283.547 134.132 282.264 132.114 282.264C129.867 282.264 128.41 283.86 128.41 286.217C128.41 288.638 129.847 290.149 132.198 290.149ZM130.503 285.411C130.548 284.541 131.209 283.845 132.149 283.845C133.068 283.845 133.705 284.501 133.71 285.411H130.503ZM143.439 284.541C143.25 283.134 142.117 282.264 140.188 282.264C138.234 282.264 136.946 283.169 136.951 284.641C136.946 285.784 137.667 286.525 139.159 286.823L140.481 287.087C141.147 287.221 141.45 287.464 141.46 287.847C141.45 288.3 140.958 288.623 140.218 288.623C139.462 288.623 138.96 288.3 138.83 287.678L136.747 287.788C136.946 289.249 138.189 290.149 140.213 290.149C142.191 290.149 143.608 289.14 143.613 287.634C143.608 286.53 142.887 285.869 141.406 285.565L140.024 285.287C139.313 285.133 139.049 284.889 139.054 284.521C139.049 284.064 139.566 283.766 140.222 283.766C140.958 283.766 141.396 284.168 141.5 284.661L143.439 284.541ZM151.3 284.541C151.112 283.134 149.978 282.264 148.049 282.264C146.095 282.264 144.808 283.169 144.812 284.641C144.808 285.784 145.528 286.525 147.02 286.823L148.342 287.087C149.009 287.221 149.312 287.464 149.322 287.847C149.312 288.3 148.82 288.623 148.079 288.623C147.323 288.623 146.821 288.3 146.692 287.678L144.609 287.788C144.808 289.249 146.05 290.149 148.074 290.149C150.053 290.149 151.469 289.14 151.474 287.634C151.469 286.53 150.749 285.869 149.267 285.565L147.885 285.287C147.174 285.133 146.911 284.889 146.915 284.521C146.911 284.064 147.428 283.766 148.084 283.766C148.82 283.766 149.257 284.168 149.362 284.661L151.3 284.541ZM154.986 290.144C156.114 290.144 156.845 289.652 157.218 288.941H157.278V290H159.286V284.849C159.286 283.03 157.745 282.264 156.045 282.264C154.215 282.264 153.012 283.139 152.719 284.531L154.677 284.69C154.822 284.183 155.274 283.81 156.035 283.81C156.756 283.81 157.168 284.173 157.168 284.8V284.83C157.168 285.322 156.646 285.386 155.319 285.516C153.807 285.655 152.45 286.162 152.45 287.867C152.45 289.379 153.529 290.144 154.986 290.144ZM155.592 288.683C154.941 288.683 154.474 288.379 154.474 287.798C154.474 287.201 154.966 286.908 155.711 286.803C156.174 286.739 156.93 286.629 157.183 286.46V287.271C157.183 288.071 156.522 288.683 155.592 288.683ZM160.929 290H163.047V282.364H160.929V290ZM161.993 281.379C162.624 281.379 163.142 280.897 163.142 280.305C163.142 279.719 162.624 279.237 161.993 279.237C161.367 279.237 160.85 279.719 160.85 280.305C160.85 280.897 161.367 281.379 161.993 281.379ZM171.424 293.023C173.607 293.023 175.158 292.028 175.158 290.075V282.364H173.055V283.646H172.975C172.692 283.025 172.07 282.264 170.793 282.264C169.117 282.264 167.7 283.567 167.7 286.167C167.7 288.707 169.078 289.891 170.798 289.891C172.016 289.891 172.697 289.279 172.975 288.648H173.065V290.045C173.065 291.094 172.394 291.501 171.474 291.501C170.539 291.501 170.067 291.094 169.893 290.631L167.934 290.895C168.188 292.098 169.366 293.023 171.424 293.023ZM171.469 288.3C170.43 288.3 169.863 287.474 169.863 286.157C169.863 284.859 170.42 283.95 171.469 283.95C172.498 283.95 173.075 284.82 173.075 286.157C173.075 287.504 172.488 288.3 171.469 288.3ZM176.843 290H178.961V285.68C178.961 284.74 179.647 284.094 180.582 284.094C180.875 284.094 181.278 284.143 181.477 284.208V282.329C181.288 282.284 181.024 282.254 180.811 282.254C179.955 282.254 179.254 282.751 178.976 283.696H178.896V282.364H176.843V290ZM184.531 290.144C185.659 290.144 186.39 289.652 186.763 288.941H186.822V290H188.831V284.849C188.831 283.03 187.29 282.264 185.589 282.264C183.76 282.264 182.557 283.139 182.263 284.531L184.222 284.69C184.366 284.183 184.819 283.81 185.58 283.81C186.3 283.81 186.713 284.173 186.713 284.8V284.83C186.713 285.322 186.191 285.386 184.864 285.516C183.352 285.655 181.995 286.162 181.995 287.867C181.995 289.379 183.074 290.144 184.531 290.144ZM185.137 288.683C184.486 288.683 184.018 288.379 184.018 287.798C184.018 287.201 184.511 286.908 185.256 286.803C185.719 286.739 186.474 286.629 186.728 286.46V287.271C186.728 288.071 186.067 288.683 185.137 288.683ZM194.536 282.364H193.099V280.534H190.981V282.364H189.937V283.955H190.981V287.932C190.971 289.428 191.99 290.169 193.527 290.104C194.074 290.085 194.461 289.975 194.675 289.906L194.342 288.33C194.238 288.349 194.014 288.399 193.815 288.399C193.392 288.399 193.099 288.24 193.099 287.653V283.955H194.536V282.364ZM200.812 286.749C200.817 287.773 200.116 288.31 199.356 288.31C198.555 288.31 198.038 287.748 198.033 286.848V282.364H195.915V287.226C195.92 289.011 196.964 290.099 198.501 290.099C199.649 290.099 200.474 289.508 200.817 288.613H200.897V290H202.93V282.364H200.812V286.749ZM204.624 290H206.742V282.364H204.624V290ZM205.688 281.379C206.32 281.379 206.837 280.897 206.837 280.305C206.837 279.719 206.32 279.237 205.688 279.237C205.062 279.237 204.545 279.719 204.545 280.305C204.545 280.897 205.062 281.379 205.688 281.379ZM212.501 282.364H211.064V280.534H208.946V282.364H207.902V283.955H208.946V287.932C208.936 289.428 209.955 290.169 211.491 290.104C212.038 290.085 212.426 289.975 212.64 289.906L212.307 288.33C212.202 288.349 211.979 288.399 211.78 288.399C211.357 288.399 211.064 288.24 211.064 287.653V283.955H212.501V282.364ZM220.125 284.541C219.936 283.134 218.802 282.264 216.873 282.264C214.919 282.264 213.632 283.169 213.637 284.641C213.632 285.784 214.353 286.525 215.844 286.823L217.167 287.087C217.833 287.221 218.136 287.464 218.146 287.847C218.136 288.3 217.644 288.623 216.903 288.623C216.147 288.623 215.645 288.3 215.516 287.678L213.433 287.788C213.632 289.249 214.875 290.149 216.898 290.149C218.877 290.149 220.294 289.14 220.299 287.634C220.294 286.53 219.573 285.869 218.091 285.565L216.709 285.287C215.998 285.133 215.735 284.889 215.74 284.521C215.735 284.064 216.252 283.766 216.908 283.766C217.644 283.766 218.081 284.168 218.186 284.661L220.125 284.541Z" fill="#100A30"/>
<path fill-rule="evenodd" clip-rule="evenodd" d="M36 332.333C40.6024 332.333 44.3333 328.602 44.3333 324C44.3333 319.398 40.6024 315.667 36 315.667C31.3976 315.667 27.6667 319.398 27.6667 324C27.6667 328.602 31.3976 332.333 36 332.333ZM36 334C30.4771 334 26 329.523 26 324C26 318.477 30.4771 314 36 314C41.5228 314 46 318.477 46 324C46 329.523 41.5228 334 36 334ZM34.8058 326.201L31.5891 322.986L30.4109 324.165L34.8075 328.559L41.8733 321.477L40.6935 320.3L34.8058 326.201Z" fill="#FCB935"/>
<path d="M65.8686 321.383C65.5852 319.031 63.8054 317.679 61.4489 317.679C58.7592 317.679 56.706 319.578 56.706 322.909C56.706 326.23 58.7244 328.139 61.4489 328.139C64.0589 328.139 65.6349 326.404 65.8686 324.53L63.6911 324.52C63.4872 325.609 62.6321 326.235 61.4837 326.235C59.9375 326.235 58.8885 325.087 58.8885 322.909C58.8885 320.791 59.9226 319.583 61.4986 319.583C62.6768 319.583 63.527 320.264 63.6911 321.383H65.8686ZM69.4904 317.818H67.3725V328H69.4904V317.818ZM71.187 328H73.3049V320.364H71.187V328ZM72.2509 319.379C72.8823 319.379 73.3993 318.897 73.3993 318.305C73.3993 317.719 72.8823 317.237 72.2509 317.237C71.6245 317.237 71.1074 317.719 71.1074 318.305C71.1074 318.897 71.6245 319.379 72.2509 319.379ZM78.4815 328.149C80.3707 328.149 81.6435 327.229 81.9418 325.812L79.983 325.683C79.7692 326.265 79.2223 326.568 78.5163 326.568C77.4574 326.568 76.7862 325.867 76.7862 324.729V324.724H81.9865V324.142C81.9865 321.547 80.4155 320.264 78.397 320.264C76.1499 320.264 74.6932 321.86 74.6932 324.217C74.6932 326.638 76.13 328.149 78.4815 328.149ZM76.7862 323.411C76.831 322.541 77.4922 321.845 78.4318 321.845C79.3516 321.845 79.9879 322.501 79.9929 323.411H76.7862ZM85.4865 323.585C85.4915 322.601 86.0781 322.024 86.9332 322.024C87.7834 322.024 88.2955 322.581 88.2905 323.516V328H90.4084V323.138C90.4084 321.358 89.3643 320.264 87.7734 320.264C86.6399 320.264 85.8196 320.821 85.4766 321.711H85.3871V320.364H83.3686V328H85.4865V323.585ZM96.1394 320.364H94.7026V318.534H92.5847V320.364H91.5407V321.955H92.5847V325.932C92.5748 327.428 93.5939 328.169 95.1301 328.104C95.677 328.085 96.0648 327.975 96.2786 327.906L95.9455 326.33C95.8411 326.349 95.6174 326.399 95.4185 326.399C94.9959 326.399 94.7026 326.24 94.7026 325.653V321.955H96.1394V320.364ZM103.763 322.541C103.574 321.134 102.441 320.264 100.512 320.264C98.5581 320.264 97.2704 321.169 97.2754 322.641C97.2704 323.784 97.9913 324.525 99.4828 324.823L100.805 325.087C101.471 325.221 101.775 325.464 101.785 325.847C101.775 326.3 101.282 326.623 100.542 326.623C99.786 326.623 99.2839 326.3 99.1547 325.678L97.0716 325.788C97.2704 327.249 98.5133 328.149 100.537 328.149C102.515 328.149 103.932 327.14 103.937 325.634C103.932 324.53 103.211 323.869 101.73 323.565L100.348 323.287C99.6369 323.133 99.3734 322.889 99.3784 322.521C99.3734 322.064 99.8904 321.766 100.547 321.766C101.282 321.766 101.72 322.168 101.824 322.661L103.763 322.541ZM108.511 328H110.629V320.364H108.511V328ZM109.575 319.379C110.206 319.379 110.724 318.897 110.724 318.305C110.724 317.719 110.206 317.237 109.575 317.237C108.949 317.237 108.432 317.719 108.432 318.305C108.432 318.897 108.949 319.379 109.575 319.379ZM114.444 317.818H112.326V328H114.444V317.818ZM118.258 317.818H116.14V328H118.258V317.818ZM119.955 328H122.072V320.364H119.955V328ZM121.018 319.379C121.65 319.379 122.167 318.897 122.167 318.305C122.167 317.719 121.65 317.237 121.018 317.237C120.392 317.237 119.875 317.719 119.875 318.305C119.875 318.897 120.392 319.379 121.018 319.379ZM123.769 328H125.887V323.416C125.887 322.571 126.424 322.009 127.13 322.009C127.826 322.009 128.293 322.487 128.293 323.237V328H130.346V323.337C130.346 322.546 130.799 322.009 131.569 322.009C132.246 322.009 132.753 322.432 132.753 323.282V328H134.866V322.864C134.866 321.209 133.881 320.264 132.459 320.264C131.341 320.264 130.471 320.836 130.157 321.711H130.078C129.834 320.826 129.054 320.264 128.005 320.264C126.976 320.264 126.195 320.811 125.877 321.711H125.787V320.364H123.769V328ZM136.539 328H138.656V320.364H136.539V328ZM137.602 319.379C138.234 319.379 138.751 318.897 138.751 318.305C138.751 317.719 138.234 317.237 137.602 317.237C136.976 317.237 136.459 317.719 136.459 318.305C136.459 318.897 136.976 319.379 137.602 319.379ZM144.415 320.364H142.978V318.534H140.86V320.364H139.816V321.955H140.86V325.932C140.85 327.428 141.869 328.169 143.406 328.104C143.952 328.085 144.34 327.975 144.554 327.906L144.221 326.33C144.116 326.349 143.893 326.399 143.694 326.399C143.271 326.399 142.978 326.24 142.978 325.653V321.955H144.415V320.364ZM149.192 328.149C151.082 328.149 152.354 327.229 152.653 325.812L150.694 325.683C150.48 326.265 149.933 326.568 149.227 326.568C148.168 326.568 147.497 325.867 147.497 324.729V324.724H152.697V324.142C152.697 321.547 151.126 320.264 149.108 320.264C146.861 320.264 145.404 321.86 145.404 324.217C145.404 326.638 146.841 328.149 149.192 328.149ZM147.497 323.411C147.542 322.541 148.203 321.845 149.143 321.845C150.062 321.845 150.699 322.501 150.704 323.411H147.497ZM148.298 319.379H149.794L151.31 317.117H149.352L148.298 319.379ZM160.433 322.541C160.244 321.134 159.111 320.264 157.182 320.264C155.228 320.264 153.94 321.169 153.945 322.641C153.94 323.784 154.661 324.525 156.153 324.823L157.475 325.087C158.141 325.221 158.445 325.464 158.455 325.847C158.445 326.3 157.952 326.623 157.212 326.623C156.456 326.623 155.954 326.3 155.825 325.678L153.741 325.788C153.94 327.249 155.183 328.149 157.207 328.149C159.185 328.149 160.602 327.14 160.607 325.634C160.602 324.53 159.881 323.869 158.4 323.565L157.018 323.287C156.307 323.133 156.043 322.889 156.048 322.521C156.043 322.064 156.56 321.766 157.217 321.766C157.952 321.766 158.39 322.168 158.494 322.661L160.433 322.541Z" fill="#100A30"/>
<path fill-rule="evenodd" clip-rule="evenodd" d="M36 370.333C40.6024 370.333 44.3333 366.602 44.3333 362C44.3333 357.398 40.6024 353.667 36 353.667C31.3976 353.667 27.6667 357.398 27.6667 362C27.6667 366.602 31.3976 370.333 36 370.333ZM36 372C30.4771 372 26 367.523 26 362C26 356.477 30.4771 352 36 352C41.5228 352 46 356.477 46 362C46 367.523 41.5228 372 36 372ZM34.8058 364.201L31.5891 360.986L30.4109 362.165L34.8075 366.559L41.8733 359.477L40.6935 358.3L34.8058 364.201Z" fill="#FCB935"/>
<path d="M65.8686 359.383C65.5852 357.031 63.8054 355.679 61.4489 355.679C58.7592 355.679 56.706 357.578 56.706 360.909C56.706 364.23 58.7244 366.139 61.4489 366.139C64.0589 366.139 65.6349 364.404 65.8686 362.53L63.6911 362.52C63.4872 363.609 62.6321 364.235 61.4837 364.235C59.9375 364.235 58.8885 363.087 58.8885 360.909C58.8885 358.791 59.9226 357.583 61.4986 357.583C62.6768 357.583 63.527 358.264 63.6911 359.383H65.8686ZM69.4904 361.585C69.4954 360.601 70.0969 360.024 70.962 360.024C71.8221 360.024 72.3292 360.576 72.3242 361.516V366H74.4421V361.138C74.4471 359.348 73.3931 358.264 71.8022 358.264C70.6438 358.264 69.8683 358.811 69.5202 359.711H69.4308V355.818H67.3725V366H69.4904V361.585ZM76.1088 366H78.2267V358.364H76.1088V366ZM77.1728 357.379C77.8042 357.379 78.3212 356.897 78.3212 356.305C78.3212 355.719 77.8042 355.237 77.1728 355.237C76.5463 355.237 76.0293 355.719 76.0293 356.305C76.0293 356.897 76.5463 357.379 77.1728 357.379ZM84.0298 358.364H82.5135V357.852C82.5135 357.335 82.7223 357.031 83.3438 357.031C83.5973 357.031 83.8558 357.086 84.0249 357.141L84.3977 355.55C84.1342 355.47 83.5526 355.341 82.9013 355.341C81.4645 355.341 80.3956 356.151 80.3956 357.812V358.364H79.3168V359.955H80.3956V366H82.5135V359.955H84.0298V358.364ZM89.4302 358.364H87.9139V357.852C87.9139 357.335 88.1227 357.031 88.7441 357.031C88.9977 357.031 89.2562 357.086 89.4252 357.141L89.7981 355.55C89.5346 355.47 88.9529 355.341 88.3017 355.341C86.8649 355.341 85.796 356.151 85.796 357.812V358.364H84.7172V359.955H85.796V366H87.9139V359.955H89.4302V358.364ZM90.7241 366H92.842V361.68C92.842 360.74 93.5281 360.094 94.4627 360.094C94.756 360.094 95.1587 360.143 95.3576 360.208V358.329C95.1687 358.284 94.9052 358.254 94.6914 358.254C93.8363 358.254 93.1353 358.751 92.8569 359.696H92.7773V358.364H90.7241V366ZM99.5772 366.149C101.466 366.149 102.739 365.229 103.037 363.812L101.079 363.683C100.865 364.265 100.318 364.568 99.612 364.568C98.5531 364.568 97.8819 363.867 97.8819 362.729V362.724H103.082V362.142C103.082 359.547 101.511 358.264 99.4927 358.264C97.2456 358.264 95.7889 359.86 95.7889 362.217C95.7889 364.638 97.2257 366.149 99.5772 366.149ZM97.8819 361.411C97.9267 360.541 98.5879 359.845 99.5275 359.845C100.447 359.845 101.084 360.501 101.089 361.411H97.8819ZM110.518 366.124C111.751 366.124 112.393 365.413 112.686 364.777H112.776V366H114.864V355.818H112.751V359.646H112.686C112.403 359.025 111.791 358.264 110.513 358.264C108.838 358.264 107.421 359.567 107.421 362.192C107.421 364.747 108.778 366.124 110.518 366.124ZM111.19 364.439C110.151 364.439 109.584 363.514 109.584 362.182C109.584 360.859 110.141 359.95 111.19 359.95C112.219 359.95 112.795 360.82 112.795 362.182C112.795 363.544 112.209 364.439 111.19 364.439ZM117.967 355.818H116.456V359.686H117.967V355.818ZM121.708 366.144C122.837 366.144 123.568 365.652 123.941 364.941H124V366H126.009V360.849C126.009 359.03 124.468 358.264 122.767 358.264C120.938 358.264 119.735 359.139 119.441 360.531L121.4 360.69C121.544 360.183 121.997 359.81 122.757 359.81C123.478 359.81 123.891 360.173 123.891 360.8V360.83C123.891 361.322 123.369 361.386 122.041 361.516C120.53 361.655 119.173 362.162 119.173 363.867C119.173 365.379 120.252 366.144 121.708 366.144ZM122.315 364.683C121.664 364.683 121.196 364.379 121.196 363.798C121.196 363.201 121.688 362.908 122.434 362.803C122.896 362.739 123.652 362.629 123.906 362.46V363.271C123.906 364.071 123.244 364.683 122.315 364.683ZM131.758 358.364H130.242V357.852C130.242 357.335 130.451 357.031 131.072 357.031C131.326 357.031 131.584 357.086 131.753 357.141L132.126 355.55C131.863 355.47 131.281 355.341 130.63 355.341C129.193 355.341 128.124 356.151 128.124 357.812V358.364H127.045V359.955H128.124V366H130.242V359.955H131.758V358.364ZM137.159 358.364H135.642V357.852C135.642 357.335 135.851 357.031 136.473 357.031C136.726 357.031 136.985 357.086 137.154 357.141L137.527 355.55C137.263 355.47 136.681 355.341 136.03 355.341C134.593 355.341 133.525 356.151 133.525 357.812V358.364H132.446V359.955H133.525V366H135.642V359.955H137.159V358.364ZM140.357 366.144C141.485 366.144 142.216 365.652 142.589 364.941H142.649V366H144.657V360.849C144.657 359.03 143.116 358.264 141.416 358.264C139.586 358.264 138.383 359.139 138.09 360.531L140.048 360.69C140.193 360.183 140.645 359.81 141.406 359.81C142.127 359.81 142.539 360.173 142.539 360.8V360.83C142.539 361.322 142.017 361.386 140.69 361.516C139.178 361.655 137.821 362.162 137.821 363.867C137.821 365.379 138.9 366.144 140.357 366.144ZM140.963 364.683C140.312 364.683 139.845 364.379 139.845 363.798C139.845 363.201 140.337 362.908 141.083 362.803C141.545 362.739 142.301 362.629 142.554 362.46V363.271C142.554 364.071 141.893 364.683 140.963 364.683ZM146.3 366H148.418V358.364H146.3V366ZM147.364 357.379C147.996 357.379 148.513 356.897 148.513 356.305C148.513 355.719 147.996 355.237 147.364 355.237C146.738 355.237 146.221 355.719 146.221 356.305C146.221 356.897 146.738 357.379 147.364 357.379ZM150.115 366H152.233V361.68C152.233 360.74 152.919 360.094 153.853 360.094C154.147 360.094 154.549 360.143 154.748 360.208V358.329C154.559 358.284 154.296 358.254 154.082 358.254C153.227 358.254 152.526 358.751 152.248 359.696H152.168V358.364H150.115V366ZM158.968 366.149C160.857 366.149 162.13 365.229 162.428 363.812L160.469 363.683C160.256 364.265 159.709 364.568 159.003 364.568C157.944 364.568 157.273 363.867 157.273 362.729V362.724H162.473V362.142C162.473 359.547 160.902 358.264 158.883 358.264C156.636 358.264 155.18 359.86 155.18 362.217C155.18 364.638 156.616 366.149 158.968 366.149ZM157.273 361.411C157.317 360.541 157.979 359.845 158.918 359.845C159.838 359.845 160.474 360.501 160.479 361.411H157.273ZM170.209 360.541C170.02 359.134 168.886 358.264 166.957 358.264C165.003 358.264 163.716 359.169 163.721 360.641C163.716 361.784 164.437 362.525 165.928 362.823L167.251 363.087C167.917 363.221 168.22 363.464 168.23 363.847C168.22 364.3 167.728 364.623 166.987 364.623C166.231 364.623 165.729 364.3 165.6 363.678L163.517 363.788C163.716 365.249 164.959 366.149 166.982 366.149C168.961 366.149 170.378 365.14 170.383 363.634C170.378 362.53 169.657 361.869 168.175 361.565L166.793 361.287C166.082 361.133 165.819 360.889 165.824 360.521C165.819 360.064 166.336 359.766 166.992 359.766C167.728 359.766 168.165 360.168 168.27 360.661L170.209 360.541ZM174.956 366H177.074V358.364H174.956V366ZM176.02 357.379C176.652 357.379 177.169 356.897 177.169 356.305C177.169 355.719 176.652 355.237 176.02 355.237C175.394 355.237 174.877 355.719 174.877 356.305C174.877 356.897 175.394 357.379 176.02 357.379ZM180.889 355.818H178.771V366H180.889V355.818ZM184.703 355.818H182.585V366H184.703V355.818ZM186.4 366H188.518V358.364H186.4V366ZM187.464 357.379C188.095 357.379 188.612 356.897 188.612 356.305C188.612 355.719 188.095 355.237 187.464 355.237C186.837 355.237 186.32 355.719 186.32 356.305C186.32 356.897 186.837 357.379 187.464 357.379ZM190.214 366H192.332V361.416C192.332 360.571 192.869 360.009 193.575 360.009C194.271 360.009 194.738 360.487 194.738 361.237V366H196.792V361.337C196.792 360.546 197.244 360.009 198.015 360.009C198.691 360.009 199.198 360.432 199.198 361.282V366H201.311V360.864C201.311 359.209 200.327 358.264 198.905 358.264C197.786 358.264 196.916 358.836 196.603 359.711H196.523C196.28 358.826 195.499 358.264 194.45 358.264C193.421 358.264 192.64 358.811 192.322 359.711H192.233V358.364H190.214V366ZM202.984 366H205.102V358.364H202.984V366ZM204.048 357.379C204.679 357.379 205.196 356.897 205.196 356.305C205.196 355.719 204.679 355.237 204.048 355.237C203.421 355.237 202.904 355.719 202.904 356.305C202.904 356.897 203.421 357.379 204.048 357.379ZM210.86 358.364H209.423V356.534H207.305V358.364H206.261V359.955H207.305V363.932C207.295 365.428 208.315 366.169 209.851 366.104C210.398 366.085 210.786 365.975 210.999 365.906L210.666 364.33C210.562 364.349 210.338 364.399 210.139 364.399C209.717 364.399 209.423 364.24 209.423 363.653V359.955H210.86V358.364ZM215.638 366.149C217.527 366.149 218.8 365.229 219.098 363.812L217.139 363.683C216.925 364.265 216.379 364.568 215.673 364.568C214.614 364.568 213.942 363.867 213.942 362.729V362.724H219.143V362.142C219.143 359.547 217.572 358.264 215.553 358.264C213.306 358.264 211.849 359.86 211.849 362.217C211.849 364.638 213.286 366.149 215.638 366.149ZM213.942 361.411C213.987 360.541 214.648 359.845 215.588 359.845C216.508 359.845 217.144 360.501 217.149 361.411H213.942ZM214.743 357.379H216.239L217.756 355.117H215.797L214.743 357.379Z" fill="#100A30"/>
<defs>
<clipPath id="clip0_1008_42">
<rect width="61" height="16" fill="white" transform="translate(30 158)"/>
</clipPath>
</defs>
</svg>
