<svg width="395" height="398" viewBox="0 0 395 398" fill="none" xmlns="http://www.w3.org/2000/svg">
<path d="M0 7.99999C0 3.58171 3.58172 0 8 0H387C391.418 0 395 3.58172 395 8V390C395 394.418 391.418 398 387 398H8.00001C3.58173 398 0 394.418 0 390V7.99999Z" fill="#100A30" fill-opacity="0.03"/>
<mask id="mask0_1008_83" style="mask-type:alpha" maskUnits="userSpaceOnUse" x="0" y="0" width="395" height="250">
<path d="M1.29935 1.25H393.701V248.75H1.29935V1.25Z" fill="#F8F7F9" stroke="#B1A6F1" stroke-width="2"/>
</mask>
<g mask="url(#mask0_1008_83)">
<path d="M31.3054 740.033L227.387 642.819C233.607 639.588 283.225 615.205 431.938 543.526C580.65 471.848 573.407 368.657 551.197 326.021C538.703 300.781 512.107 247.423 505.674 235.905C499.241 224.389 510.647 213.201 517.154 209.046C584.188 169.581 651.651 113.642 632.264 70.3138C555.188 -101.939 509.764 -205.021 471.999 -259.697C434.235 -314.375 391.171 -296.649 378.969 -292.631C369.208 -289.419 294.709 -248.087 258.68 -227.824L244.608 -253.017C238.173 -264.535 225.37 -261.597 219.771 -258.69C5.74677 -149.06 -429.767 74.0786 -459.623 89.5882C-489.48 105.098 -487.659 122.725 -483.015 129.6C-425.336 234.296 -288.696 480.926 -203.571 629.873C-118.446 778.819 -11.518 765.374 31.3054 740.033Z" fill="#DBDAE0"/>
<path d="M260.456 -365.911C391.572 -426.117 478.463 -339.924 503.238 -294.312C519.754 -340.454 620.5 -399.985 708.034 -373.866C894.661 -318.179 853.773 -144.581 836.856 -108.157C788.821 -4.73672 561.043 306.054 524.708 329.389C488.375 352.725 273.67 87.5461 224.124 -4.73669C174.576 -97.0196 83.7392 -284.766 260.456 -365.911Z" fill="#C3C1CB"/>
<path d="M-175.941 362.818C-149.15 431.22 -54.6561 448.321 -10.7577 448.321L-10.8259 502.731C-10.8616 531.233 59.0462 507.914 81.9497 461.276C158.526 478.117 502.58 450.911 528.302 300.634C539.838 233.234 513.694 162.016 417.006 107.605C320.319 53.1941 115.185 64.2156 -10.3487 121.855C-182.458 200.881 -209.429 277.315 -175.941 362.818Z" fill="#100A30"/>
</g>
<path d="M44.0455 196H46.2273C45.5795 192.625 42.75 190.307 39.0682 190.307C34.5938 190.307 31.4318 193.75 31.4318 199.273C31.4318 204.795 34.5682 208.239 39.2045 208.239C43.3636 208.239 46.3295 205.469 46.3295 201.148V199.273H39.6818V201.148H44.2841C44.2244 204.284 42.1619 206.261 39.2045 206.261C35.9659 206.261 33.4773 203.807 33.4773 199.273C33.4773 194.739 35.9659 192.284 39.0682 192.284C41.5909 192.284 43.304 193.707 44.0455 196ZM49.6768 208H51.6882V199.716C51.6882 197.943 53.0859 196.648 54.995 196.648C55.532 196.648 56.0859 196.75 56.2223 196.784V194.739C55.9922 194.722 55.4638 194.705 55.1655 194.705C53.5973 194.705 52.2337 195.591 51.7564 196.886H51.62V194.909H49.6768V208ZM62.4588 208.307C64.7429 208.307 65.9361 207.08 66.3452 206.227H66.4474V208H68.4588V199.375C68.4588 195.216 65.2884 194.739 63.6179 194.739C61.6406 194.739 59.3906 195.42 58.3679 197.807L60.277 198.489C60.7202 197.534 61.7685 196.511 63.6861 196.511C65.5355 196.511 66.4474 197.491 66.4474 199.17V199.239C66.4474 200.21 65.4588 200.125 63.0724 200.432C60.6435 200.747 57.9929 201.284 57.9929 204.284C57.9929 206.841 59.9702 208.307 62.4588 208.307ZM62.7656 206.5C61.1634 206.5 60.0043 205.784 60.0043 204.386C60.0043 202.852 61.402 202.375 62.9702 202.17C63.8224 202.068 66.1065 201.83 66.4474 201.42V203.261C66.4474 204.898 65.152 206.5 62.7656 206.5ZM77.8232 194.909H75.0277V191.773H73.0163V194.909H71.0391V196.614H73.0163V204.795C73.0163 207.08 74.8572 208.17 76.5618 208.17C77.3118 208.17 77.7891 208.034 78.0618 207.932L77.6527 206.125C77.4822 206.159 77.2095 206.227 76.7663 206.227C75.88 206.227 75.0277 205.955 75.0277 204.25V196.614H77.8232V194.909ZM89.0987 202.648C89.0987 205.102 87.2237 206.227 85.7237 206.227C84.0533 206.227 82.8601 205 82.8601 203.091V194.909H80.8487V203.227C80.8487 206.568 82.6214 208.17 85.076 208.17C87.0533 208.17 88.3487 207.114 88.9624 205.784H89.0987V208H91.1101V194.909H89.0987V202.648ZM94.794 208H96.8054V194.909H94.794V208ZM95.8168 192.727C96.6009 192.727 97.2486 192.114 97.2486 191.364C97.2486 190.614 96.6009 190 95.8168 190C95.0327 190 94.3849 190.614 94.3849 191.364C94.3849 192.114 95.0327 192.727 95.8168 192.727ZM106.183 194.909H103.387V191.773H101.376V194.909H99.3984V196.614H101.376V204.795C101.376 207.08 103.217 208.17 104.921 208.17C105.671 208.17 106.148 208.034 106.421 207.932L106.012 206.125C105.842 206.159 105.569 206.227 105.126 206.227C104.239 206.227 103.387 205.955 103.387 204.25V196.614H106.183V194.909Z" fill="white"/>
<g clip-path="url(#clip0_1008_83)">
<path d="M30 173.827H37.5377V173.007L35.6694 172.445V167.76L36.3137 167.933C37.1297 168.17 37.9243 168.278 38.6759 168.278C41.5536 168.278 43.7011 166.572 43.7011 163.614C43.7011 160.634 41.3174 158.972 37.3445 158.972H30V159.792L31.761 160.354V172.445L30 173.007V173.827ZM35.6694 160.332H37.0224C39.1484 160.332 39.7068 160.893 39.7068 163.614C39.7068 166.054 39.3632 166.831 37.5163 166.831C37.3015 166.831 37.0438 166.831 36.7861 166.81L35.6694 166.723V160.332Z" fill="white"/>
<path d="M46.5095 174C47.9913 174 49.2368 172.899 49.8596 171.819C49.8596 173.179 50.7401 173.957 52.1575 173.957C53.2097 173.957 53.8969 173.568 54.4553 173.244V172.381C53.2742 172.273 53.0809 172.186 53.0809 171.538V167.911C53.0809 164.132 51.5132 163.009 48.6355 163.009C46.7242 163.009 44.1258 163.808 44.1258 165.773C44.1258 166.745 44.7486 167.436 45.672 167.436C46.5095 167.436 47.1323 166.853 47.1323 166.097C47.1323 165.428 46.7887 164.802 45.9511 164.629V164.586C46.2518 164.499 46.7672 164.413 47.4759 164.413C49.065 164.413 49.8596 164.78 49.8596 166.313V167.911L48.0342 168.235C45.1136 168.731 43.8036 169.638 43.8036 171.517C43.8036 173.028 44.9633 174 46.5095 174ZM48.0557 172.1C47.4115 172.1 47.0249 171.798 47.0249 170.955C47.0249 170.027 47.3685 169.573 48.4852 169.163L49.8596 168.667V171.085C49.3657 171.733 48.7644 172.1 48.0557 172.1Z" fill="white"/>
<path d="M61.5392 173.827H67.1013V172.64H66.1778L62.57 167.047L65.1685 164.543H66.5429V163.355H61.5177V164.543H62.8921L59.3273 168.947V158H58.5757L54.4525 159.619V160.094L56.106 161.023V172.64H54.7101V173.827H60.2722V172.64H59.3273V170.178L60.444 169.099L62.5485 172.64H61.5392V173.827Z" fill="white"/>
<path d="M74.3362 173.827H79.8982V172.64H78.9748L75.367 167.047L77.9654 164.543H79.3399V163.355H74.3147V164.543H75.6891L72.1242 168.947V158H71.3726L67.2494 159.619V160.094L68.903 161.023V172.64H67.5071V173.827H73.0691V172.64H72.1242V170.178L73.2409 169.099L75.3455 172.64H74.3362V173.827Z" fill="white"/>
<path d="M85.2804 174C88.5876 174 90.9284 171.279 90.9284 168.494C90.9284 165.708 88.5876 163.009 85.2804 163.009C81.9733 163.009 79.6324 165.708 79.6324 168.494C79.6324 171.279 81.9733 174 85.2804 174ZM85.2804 172.791C83.9919 172.791 83.2188 172.078 83.2188 168.494C83.2188 164.888 84.0134 164.219 85.2804 164.219C86.5475 164.219 87.342 164.866 87.342 168.494C87.342 172.078 86.5689 172.791 85.2804 172.791Z" fill="white"/>
</g>
<path fill-rule="evenodd" clip-rule="evenodd" d="M36 294.333C40.6024 294.333 44.3333 290.602 44.3333 286C44.3333 281.398 40.6024 277.667 36 277.667C31.3976 277.667 27.6667 281.398 27.6667 286C27.6667 290.602 31.3976 294.333 36 294.333ZM36 296C30.4771 296 26 291.523 26 286C26 280.477 30.4771 276 36 276C41.5228 276 46 280.477 46 286C46 291.523 41.5228 296 36 296ZM34.8058 288.201L31.5891 284.986L30.4109 286.165L34.8075 290.559L41.8733 283.477L40.6935 282.3L34.8058 288.201Z" fill="#624DE3"/>
<path d="M63.6364 283.109H65.8239C65.5455 281.096 63.7706 279.679 61.4688 279.679C58.7791 279.679 56.706 281.618 56.706 284.919C56.706 288.141 58.6449 290.139 61.5135 290.139C64.0838 290.139 65.9183 288.513 65.9183 285.834V284.551H61.6577V286.172H63.8452C63.8153 287.435 62.9553 288.235 61.5234 288.235C59.9077 288.235 58.8885 287.027 58.8885 284.899C58.8885 282.781 59.9474 281.583 61.5036 281.583C62.6122 281.583 63.3629 282.155 63.6364 283.109ZM67.4956 290H69.6135V285.68C69.6135 284.74 70.2995 284.094 71.2342 284.094C71.5275 284.094 71.9302 284.143 72.1291 284.208V282.329C71.9402 282.284 71.6767 282.254 71.4629 282.254C70.6078 282.254 69.9068 282.751 69.6284 283.696H69.5488V282.364H67.4956V290ZM75.1829 290.144C76.3114 290.144 77.0423 289.652 77.4151 288.941H77.4748V290H79.4833V284.849C79.4833 283.03 77.9421 282.264 76.2418 282.264C74.4123 282.264 73.2092 283.139 72.9158 284.531L74.8746 284.69C75.0188 284.183 75.4712 283.81 76.2319 283.81C76.9528 283.81 77.3654 284.173 77.3654 284.8V284.83C77.3654 285.322 76.8434 285.386 75.516 285.516C74.0046 285.655 72.6474 286.162 72.6474 287.867C72.6474 289.379 73.7262 290.144 75.1829 290.144ZM75.7894 288.683C75.1381 288.683 74.6708 288.379 74.6708 287.798C74.6708 287.201 75.163 286.908 75.9087 286.803C76.3711 286.739 77.1268 286.629 77.3803 286.46V287.271C77.3803 288.071 76.7191 288.683 75.7894 288.683ZM85.1882 282.364H83.7514V280.534H81.6335V282.364H80.5895V283.955H81.6335V287.932C81.6236 289.428 82.6428 290.169 84.179 290.104C84.7259 290.085 85.1136 289.975 85.3274 289.906L84.9943 288.33C84.8899 288.349 84.6662 288.399 84.4673 288.399C84.0447 288.399 83.7514 288.24 83.7514 287.653V283.955H85.1882V282.364ZM91.4648 286.749C91.4698 287.773 90.7688 288.31 90.0082 288.31C89.2077 288.31 88.6907 287.748 88.6857 286.848V282.364H86.5678V287.226C86.5728 289.011 87.6168 290.099 89.1531 290.099C90.3015 290.099 91.1268 289.508 91.4698 288.613H91.5494V290H93.5827V282.364H91.4648V286.749ZM95.2768 290H97.3947V282.364H95.2768V290ZM96.3407 281.379C96.9721 281.379 97.4892 280.897 97.4892 280.305C97.4892 279.719 96.9721 279.237 96.3407 279.237C95.7143 279.237 95.1973 279.719 95.1973 280.305C95.1973 280.897 95.7143 281.379 96.3407 281.379ZM103.153 282.364H101.716V280.534H99.5984V282.364H98.5543V283.955H99.5984V287.932C99.5884 289.428 100.608 290.169 102.144 290.104C102.691 290.085 103.078 289.975 103.292 289.906L102.959 288.33C102.855 288.349 102.631 288.399 102.432 288.399C102.01 288.399 101.716 288.24 101.716 287.653V283.955H103.153V282.364Z" fill="#100A30"/>
<path fill-rule="evenodd" clip-rule="evenodd" d="M36 332.333C40.6024 332.333 44.3333 328.602 44.3333 324C44.3333 319.398 40.6024 315.667 36 315.667C31.3976 315.667 27.6667 319.398 27.6667 324C27.6667 328.602 31.3976 332.333 36 332.333ZM36 334C30.4771 334 26 329.523 26 324C26 318.477 30.4771 314 36 314C41.5228 314 46 318.477 46 324C46 329.523 41.5228 334 36 334ZM34.8058 326.201L31.5891 322.986L30.4109 324.165L34.8075 328.559L41.8733 321.477L40.6935 320.3L34.8058 326.201Z" fill="#624DE3"/>
<path d="M60.9616 317.818V324.918C60.9567 325.897 60.5192 326.414 59.7237 326.414C58.973 326.414 58.4858 325.947 58.4709 325.136H56.3281C56.3182 327.17 57.7699 328.139 59.6143 328.139C61.6776 328.139 63.0845 326.891 63.0895 324.918V317.818H60.9616ZM69.7266 324.749C69.7315 325.773 69.0305 326.31 68.2699 326.31C67.4695 326.31 66.9524 325.748 66.9474 324.848V320.364H64.8295V325.226C64.8345 327.011 65.8786 328.099 67.4148 328.099C68.5632 328.099 69.3885 327.508 69.7315 326.613H69.8111V328H71.8445V320.364H69.7266V324.749ZM79.8922 322.541C79.7033 321.134 78.5698 320.264 76.6408 320.264C74.687 320.264 73.3993 321.169 73.4043 322.641C73.3993 323.784 74.1202 324.525 75.6117 324.823L76.9341 325.087C77.6003 325.221 77.9036 325.464 77.9135 325.847C77.9036 326.3 77.4114 326.623 76.6706 326.623C75.915 326.623 75.4128 326.3 75.2836 325.678L73.2005 325.788C73.3993 327.249 74.6422 328.149 76.6657 328.149C78.6444 328.149 80.0613 327.14 80.0662 325.634C80.0613 324.53 79.3404 323.869 77.8588 323.565L76.4767 323.287C75.7658 323.133 75.5023 322.889 75.5073 322.521C75.5023 322.064 76.0194 321.766 76.6756 321.766C77.4114 321.766 77.8489 322.168 77.9533 322.661L79.8922 322.541ZM88.5639 330.864V320.364H86.4759V321.646H86.3814C86.098 321.025 85.4865 320.264 84.2088 320.264C82.5334 320.264 81.1165 321.567 81.1165 324.192C81.1165 326.747 82.4737 328.124 84.2138 328.124C85.4467 328.124 86.0881 327.413 86.3814 326.777H86.446V330.864H88.5639ZM86.4908 324.182C86.4908 325.544 85.9041 326.439 84.8849 326.439C83.8459 326.439 83.2791 325.514 83.2791 324.182C83.2791 322.859 83.8359 321.95 84.8849 321.95C85.9141 321.95 86.4908 322.82 86.4908 324.182ZM95.1562 324.749C95.1612 325.773 94.4602 326.31 93.6996 326.31C92.8991 326.31 92.3821 325.748 92.3771 324.848V320.364H90.2592V325.226C90.2642 327.011 91.3082 328.099 92.8445 328.099C93.9929 328.099 94.8182 327.508 95.1612 326.613H95.2408V328H97.2741V320.364H95.1562V324.749ZM100.33 317.818H98.8191V321.686H100.33V317.818ZM104.072 328.144C105.2 328.144 105.931 327.652 106.304 326.941H106.363V328H108.372V322.849C108.372 321.03 106.831 320.264 105.131 320.264C103.301 320.264 102.098 321.139 101.805 322.531L103.763 322.69C103.907 322.183 104.36 321.81 105.121 321.81C105.841 321.81 106.254 322.173 106.254 322.8V322.83C106.254 323.322 105.732 323.386 104.405 323.516C102.893 323.655 101.536 324.162 101.536 325.867C101.536 327.379 102.615 328.144 104.072 328.144ZM104.678 326.683C104.027 326.683 103.559 326.379 103.559 325.798C103.559 325.201 104.052 324.908 104.797 324.803C105.26 324.739 106.015 324.629 106.269 324.46V325.271C106.269 326.071 105.608 326.683 104.678 326.683ZM104.474 319.379H105.971L104.912 317.117H102.958L104.474 319.379ZM113.081 326.21H117.968V328H120.027V326.21H121.289V324.485H120.027V317.818H117.332L113.081 324.515V326.21ZM118.008 324.485H115.249V324.406L117.929 320.165H118.008V324.485ZM129.434 328.149C131.468 328.149 132.745 326.956 132.845 325.201H130.846C130.722 326.016 130.185 326.474 129.459 326.474C128.47 326.474 127.828 325.643 127.828 324.182C127.828 322.74 128.475 321.915 129.459 321.915C130.235 321.915 130.732 322.427 130.846 323.188H132.845C132.755 321.423 131.418 320.264 129.424 320.264C127.107 320.264 125.676 321.87 125.676 324.212C125.676 326.533 127.083 328.149 129.434 328.149ZM136.319 317.818H134.201V328H136.319V317.818ZM138.015 328H140.133V320.364H138.015V328ZM139.079 319.379C139.71 319.379 140.227 318.897 140.227 318.305C140.227 317.719 139.71 317.237 139.079 317.237C138.453 317.237 137.936 317.719 137.936 318.305C137.936 318.897 138.453 319.379 139.079 319.379ZM145.31 328.149C147.199 328.149 148.472 327.229 148.77 325.812L146.811 325.683C146.597 326.265 146.05 326.568 145.344 326.568C144.286 326.568 143.614 325.867 143.614 324.729V324.724H148.815V324.142C148.815 321.547 147.244 320.264 145.225 320.264C142.978 320.264 141.521 321.86 141.521 324.217C141.521 326.638 142.958 328.149 145.31 328.149ZM143.614 323.411C143.659 322.541 144.32 321.845 145.26 321.845C146.18 321.845 146.816 322.501 146.821 323.411H143.614ZM152.315 323.585C152.32 322.601 152.906 322.024 153.761 322.024C154.612 322.024 155.124 322.581 155.119 323.516V328H157.237V323.138C157.237 321.358 156.192 320.264 154.602 320.264C153.468 320.264 152.648 320.821 152.305 321.711H152.215V320.364H150.197V328H152.315V323.585ZM162.968 320.364H161.531V318.534H159.413V320.364H158.369V321.955H159.413V325.932C159.403 327.428 160.422 328.169 161.958 328.104C162.505 328.085 162.893 327.975 163.107 327.906L162.774 326.33C162.669 326.349 162.445 326.399 162.247 326.399C161.824 326.399 161.531 326.24 161.531 325.653V321.955H162.968V320.364ZM170.591 322.541C170.403 321.134 169.269 320.264 167.34 320.264C165.386 320.264 164.099 321.169 164.104 322.641C164.099 323.784 164.819 324.525 166.311 324.823L167.633 325.087C168.3 325.221 168.603 325.464 168.613 325.847C168.603 326.3 168.111 326.623 167.37 326.623C166.614 326.623 166.112 326.3 165.983 325.678L163.9 325.788C164.099 327.249 165.341 328.149 167.365 328.149C169.344 328.149 170.76 327.14 170.765 325.634C170.76 324.53 170.04 323.869 168.558 323.565L167.176 323.287C166.465 323.133 166.202 322.889 166.206 322.521C166.202 322.064 166.719 321.766 167.375 321.766C168.111 321.766 168.548 322.168 168.653 322.661L170.591 322.541Z" fill="#100A30"/>
<path fill-rule="evenodd" clip-rule="evenodd" d="M36 370.333C40.6024 370.333 44.3333 366.602 44.3333 362C44.3333 357.398 40.6024 353.667 36 353.667C31.3976 353.667 27.6667 357.398 27.6667 362C27.6667 366.602 31.3976 370.333 36 370.333ZM36 372C30.4771 372 26 367.523 26 362C26 356.477 30.4771 352 36 352C41.5228 352 46 356.477 46 362C46 367.523 41.5228 372 36 372ZM34.8058 364.201L31.5891 360.986L30.4109 362.165L34.8075 366.559L41.8733 359.477L40.6935 358.3L34.8058 364.201Z" fill="#624DE3"/>
<path d="M65.8686 359.383C65.5852 357.031 63.8054 355.679 61.4489 355.679C58.7592 355.679 56.706 357.578 56.706 360.909C56.706 364.23 58.7244 366.139 61.4489 366.139C64.0589 366.139 65.6349 364.404 65.8686 362.53L63.6911 362.52C63.4872 363.609 62.6321 364.235 61.4837 364.235C59.9375 364.235 58.8885 363.087 58.8885 360.909C58.8885 358.791 59.9226 357.583 61.4986 357.583C62.6768 357.583 63.527 358.264 63.6911 359.383H65.8686ZM69.4904 361.585C69.4954 360.601 70.0969 360.024 70.962 360.024C71.8221 360.024 72.3292 360.576 72.3242 361.516V366H74.4421V361.138C74.4471 359.348 73.3931 358.264 71.8022 358.264C70.6438 358.264 69.8683 358.811 69.5202 359.711H69.4308V355.818H67.3725V366H69.4904V361.585ZM76.1088 366H78.2267V358.364H76.1088V366ZM77.1728 357.379C77.8042 357.379 78.3212 356.897 78.3212 356.305C78.3212 355.719 77.8042 355.237 77.1728 355.237C76.5463 355.237 76.0293 355.719 76.0293 356.305C76.0293 356.897 76.5463 357.379 77.1728 357.379ZM84.0298 358.364H82.5135V357.852C82.5135 357.335 82.7223 357.031 83.3438 357.031C83.5973 357.031 83.8558 357.086 84.0249 357.141L84.3977 355.55C84.1342 355.47 83.5526 355.341 82.9013 355.341C81.4645 355.341 80.3956 356.151 80.3956 357.812V358.364H79.3168V359.955H80.3956V366H82.5135V359.955H84.0298V358.364ZM89.4302 358.364H87.9139V357.852C87.9139 357.335 88.1227 357.031 88.7441 357.031C88.9977 357.031 89.2562 357.086 89.4252 357.141L89.7981 355.55C89.5346 355.47 88.9529 355.341 88.3017 355.341C86.8649 355.341 85.796 356.151 85.796 357.812V358.364H84.7172V359.955H85.796V366H87.9139V359.955H89.4302V358.364ZM90.7241 366H92.842V361.68C92.842 360.74 93.5281 360.094 94.4627 360.094C94.756 360.094 95.1587 360.143 95.3576 360.208V358.329C95.1687 358.284 94.9052 358.254 94.6914 358.254C93.8363 358.254 93.1353 358.751 92.8569 359.696H92.7773V358.364H90.7241V366ZM99.5772 366.149C101.466 366.149 102.739 365.229 103.037 363.812L101.079 363.683C100.865 364.265 100.318 364.568 99.612 364.568C98.5531 364.568 97.8819 363.867 97.8819 362.729V362.724H103.082V362.142C103.082 359.547 101.511 358.264 99.4927 358.264C97.2456 358.264 95.7889 359.86 95.7889 362.217C95.7889 364.638 97.2257 366.149 99.5772 366.149ZM97.8819 361.411C97.9267 360.541 98.5879 359.845 99.5275 359.845C100.447 359.845 101.084 360.501 101.089 361.411H97.8819ZM110.518 366.124C111.751 366.124 112.393 365.413 112.686 364.777H112.776V366H114.864V355.818H112.751V359.646H112.686C112.403 359.025 111.791 358.264 110.513 358.264C108.838 358.264 107.421 359.567 107.421 362.192C107.421 364.747 108.778 366.124 110.518 366.124ZM111.19 364.439C110.151 364.439 109.584 363.514 109.584 362.182C109.584 360.859 110.141 359.95 111.19 359.95C112.219 359.95 112.795 360.82 112.795 362.182C112.795 363.544 112.209 364.439 111.19 364.439ZM117.967 355.818H116.456V359.686H117.967V355.818ZM121.708 366.144C122.837 366.144 123.568 365.652 123.941 364.941H124V366H126.009V360.849C126.009 359.03 124.468 358.264 122.767 358.264C120.938 358.264 119.735 359.139 119.441 360.531L121.4 360.69C121.544 360.183 121.997 359.81 122.757 359.81C123.478 359.81 123.891 360.173 123.891 360.8V360.83C123.891 361.322 123.369 361.386 122.041 361.516C120.53 361.655 119.173 362.162 119.173 363.867C119.173 365.379 120.252 366.144 121.708 366.144ZM122.315 364.683C121.664 364.683 121.196 364.379 121.196 363.798C121.196 363.201 121.688 362.908 122.434 362.803C122.896 362.739 123.652 362.629 123.906 362.46V363.271C123.906 364.071 123.244 364.683 122.315 364.683ZM131.758 358.364H130.242V357.852C130.242 357.335 130.451 357.031 131.072 357.031C131.326 357.031 131.584 357.086 131.753 357.141L132.126 355.55C131.863 355.47 131.281 355.341 130.63 355.341C129.193 355.341 128.124 356.151 128.124 357.812V358.364H127.045V359.955H128.124V366H130.242V359.955H131.758V358.364ZM137.159 358.364H135.642V357.852C135.642 357.335 135.851 357.031 136.473 357.031C136.726 357.031 136.985 357.086 137.154 357.141L137.527 355.55C137.263 355.47 136.681 355.341 136.03 355.341C134.593 355.341 133.525 356.151 133.525 357.812V358.364H132.446V359.955H133.525V366H135.642V359.955H137.159V358.364ZM140.357 366.144C141.485 366.144 142.216 365.652 142.589 364.941H142.649V366H144.657V360.849C144.657 359.03 143.116 358.264 141.416 358.264C139.586 358.264 138.383 359.139 138.09 360.531L140.048 360.69C140.193 360.183 140.645 359.81 141.406 359.81C142.127 359.81 142.539 360.173 142.539 360.8V360.83C142.539 361.322 142.017 361.386 140.69 361.516C139.178 361.655 137.821 362.162 137.821 363.867C137.821 365.379 138.9 366.144 140.357 366.144ZM140.963 364.683C140.312 364.683 139.845 364.379 139.845 363.798C139.845 363.201 140.337 362.908 141.083 362.803C141.545 362.739 142.301 362.629 142.554 362.46V363.271C142.554 364.071 141.893 364.683 140.963 364.683ZM146.3 366H148.418V358.364H146.3V366ZM147.364 357.379C147.996 357.379 148.513 356.897 148.513 356.305C148.513 355.719 147.996 355.237 147.364 355.237C146.738 355.237 146.221 355.719 146.221 356.305C146.221 356.897 146.738 357.379 147.364 357.379ZM150.115 366H152.233V361.68C152.233 360.74 152.919 360.094 153.853 360.094C154.147 360.094 154.549 360.143 154.748 360.208V358.329C154.559 358.284 154.296 358.254 154.082 358.254C153.227 358.254 152.526 358.751 152.248 359.696H152.168V358.364H150.115V366ZM158.968 366.149C160.857 366.149 162.13 365.229 162.428 363.812L160.469 363.683C160.256 364.265 159.709 364.568 159.003 364.568C157.944 364.568 157.273 363.867 157.273 362.729V362.724H162.473V362.142C162.473 359.547 160.902 358.264 158.883 358.264C156.636 358.264 155.18 359.86 155.18 362.217C155.18 364.638 156.616 366.149 158.968 366.149ZM157.273 361.411C157.317 360.541 157.979 359.845 158.918 359.845C159.838 359.845 160.474 360.501 160.479 361.411H157.273ZM170.209 360.541C170.02 359.134 168.886 358.264 166.957 358.264C165.003 358.264 163.716 359.169 163.721 360.641C163.716 361.784 164.437 362.525 165.928 362.823L167.251 363.087C167.917 363.221 168.22 363.464 168.23 363.847C168.22 364.3 167.728 364.623 166.987 364.623C166.231 364.623 165.729 364.3 165.6 363.678L163.517 363.788C163.716 365.249 164.959 366.149 166.982 366.149C168.961 366.149 170.378 365.14 170.383 363.634C170.378 362.53 169.657 361.869 168.175 361.565L166.793 361.287C166.082 361.133 165.819 360.889 165.824 360.521C165.819 360.064 166.336 359.766 166.992 359.766C167.728 359.766 168.165 360.168 168.27 360.661L170.209 360.541ZM174.956 358.364V366.343C174.956 366.92 174.713 367.208 174.032 367.208C173.942 367.208 173.863 367.208 173.753 367.198V368.854C173.907 368.859 174.032 368.864 174.181 368.864C175.981 368.864 177.074 368.148 177.074 366.378V358.364H174.956ZM176.01 357.379C176.642 357.379 177.159 356.897 177.159 356.305C177.159 355.719 176.642 355.237 176.01 355.237C175.384 355.237 174.867 355.719 174.867 356.305C174.867 356.897 175.384 357.379 176.01 357.379ZM183.668 362.749C183.673 363.773 182.972 364.31 182.211 364.31C181.411 364.31 180.894 363.748 180.889 362.848V358.364H178.771V363.226C178.776 365.011 179.82 366.099 181.356 366.099C182.505 366.099 183.33 365.508 183.673 364.613H183.752V366H185.786V358.364H183.668V362.749ZM193.834 360.541C193.645 359.134 192.511 358.264 190.582 358.264C188.628 358.264 187.341 359.169 187.346 360.641C187.341 361.784 188.062 362.525 189.553 362.823L190.876 363.087C191.542 363.221 191.845 363.464 191.855 363.847C191.845 364.3 191.353 364.623 190.612 364.623C189.856 364.623 189.354 364.3 189.225 363.678L187.142 363.788C187.341 365.249 188.584 366.149 190.607 366.149C192.586 366.149 194.003 365.14 194.008 363.634C194.003 362.53 193.282 361.869 191.8 361.565L190.418 361.287C189.707 361.133 189.444 360.889 189.449 360.521C189.444 360.064 189.961 359.766 190.617 359.766C191.353 359.766 191.79 360.168 191.895 360.661L193.834 360.541ZM202.505 368.864V358.364H200.417V359.646H200.323C200.039 359.025 199.428 358.264 198.15 358.264C196.475 358.264 195.058 359.567 195.058 362.192C195.058 364.747 196.415 366.124 198.155 366.124C199.388 366.124 200.029 365.413 200.323 364.777H200.387V368.864H202.505ZM200.432 362.182C200.432 363.544 199.846 364.439 198.826 364.439C197.787 364.439 197.221 363.514 197.221 362.182C197.221 360.859 197.777 359.95 198.826 359.95C199.855 359.95 200.432 360.82 200.432 362.182ZM209.098 362.749C209.103 363.773 208.402 364.31 207.641 364.31C206.841 364.31 206.324 363.748 206.319 362.848V358.364H204.201V363.226C204.206 365.011 205.25 366.099 206.786 366.099C207.934 366.099 208.76 365.508 209.103 364.613H209.182V366H211.216V358.364H209.098V362.749ZM214.272 355.818H212.76V359.686H214.272V355.818ZM218.013 366.144C219.142 366.144 219.872 365.652 220.245 364.941H220.305V366H222.313V360.849C222.313 359.03 220.772 358.264 219.072 358.264C217.242 358.264 216.039 359.139 215.746 360.531L217.705 360.69C217.849 360.183 218.301 359.81 219.062 359.81C219.783 359.81 220.195 360.173 220.195 360.8V360.83C220.195 361.322 219.673 361.386 218.346 361.516C216.835 361.655 215.477 362.162 215.477 363.867C215.477 365.379 216.556 366.144 218.013 366.144ZM218.619 364.683C217.968 364.683 217.501 364.379 217.501 363.798C217.501 363.201 217.993 362.908 218.739 362.803C219.201 362.739 219.957 362.629 220.21 362.46V363.271C220.21 364.071 219.549 364.683 218.619 364.683ZM218.416 357.379H219.912L218.853 355.117H216.899L218.416 357.379ZM230.896 366.139C233.163 366.139 234.704 364.663 234.699 362.604C234.704 360.656 233.342 359.254 231.507 359.254C230.612 359.254 229.842 359.626 229.484 360.129H229.424L229.688 357.578H234.137V355.818H227.913L227.43 361.188L229.344 361.531C229.658 361.108 230.264 360.844 230.866 360.844C231.89 360.849 232.626 361.59 232.626 362.659C232.626 363.718 231.905 364.449 230.896 364.449C230.04 364.449 229.349 363.912 229.3 363.121H227.212C227.251 364.881 228.788 366.139 230.896 366.139ZM243.433 366.224C245.993 366.224 247.539 364.275 247.544 360.919C247.549 357.588 245.983 355.679 243.433 355.679C240.877 355.679 239.326 357.583 239.321 360.919C239.311 364.265 240.867 366.219 243.433 366.224ZM243.433 364.439C242.264 364.439 241.509 363.266 241.514 360.919C241.519 358.607 242.269 357.444 243.433 357.444C244.591 357.444 245.347 358.607 245.347 360.919C245.352 363.266 244.596 364.439 243.433 364.439ZM253.071 366.224C255.632 366.224 257.178 364.275 257.183 360.919C257.188 357.588 255.622 355.679 253.071 355.679C250.516 355.679 248.965 357.583 248.96 360.919C248.95 364.265 250.506 366.219 253.071 366.224ZM253.071 364.439C251.903 364.439 251.147 363.266 251.152 360.919C251.157 358.607 251.908 357.444 253.071 357.444C254.23 357.444 254.985 358.607 254.985 360.919C254.99 363.266 254.235 364.439 253.071 364.439ZM262.71 366.224C265.27 366.224 266.817 364.275 266.822 360.919C266.827 357.588 265.26 355.679 262.71 355.679C260.155 355.679 258.604 357.583 258.599 360.919C258.589 364.265 260.145 366.219 262.71 366.224ZM262.71 364.439C261.542 364.439 260.786 363.266 260.791 360.919C260.796 358.607 261.547 357.444 262.71 357.444C263.868 357.444 264.624 358.607 264.624 360.919C264.629 363.266 263.873 364.439 262.71 364.439ZM275.078 359.323H271.568C271.901 358.135 272.647 357.598 273.656 357.598C274.536 357.598 275.178 358.026 275.575 358.304L276.371 356.604C275.635 356.007 274.72 355.679 273.656 355.679C271.509 355.679 269.883 357.006 269.381 359.323H268.342L267.939 360.412H269.232C269.222 360.576 269.217 360.745 269.217 360.919C269.217 361.083 269.222 361.247 269.232 361.406H268.342L267.939 362.52H269.381C269.883 364.832 271.509 366.139 273.656 366.139C274.68 366.139 275.62 365.836 276.341 365.239L275.536 363.539C275.173 363.808 274.531 364.22 273.656 364.22C272.647 364.22 271.901 363.703 271.568 362.52H273.587L274.129 361.406H271.394C271.384 361.252 271.379 361.088 271.379 360.919C271.379 360.74 271.384 360.571 271.394 360.412H274.586L275.078 359.323Z" fill="#100A30"/>
<defs>
<clipPath id="clip0_1008_83">
<rect width="61" height="16" fill="white" transform="translate(30 158)"/>
</clipPath>
</defs>
</svg>
